<svg width="29" height="25" viewBox="0 0 29 25" fill="none" xmlns="http://www.w3.org/2000/svg">
<path fill-rule="evenodd" clip-rule="evenodd" d="M13.3884 1.13632C13.6717 0.888959 14.0559 0.75 14.4565 0.75C14.8571 0.75 15.2413 0.888959 15.5245 1.13632L24.5886 9.05308L27.61 11.692C27.8852 11.9409 28.0375 12.2742 28.034 12.6201C28.0306 12.9661 27.8717 13.297 27.5916 13.5416C27.3115 13.7863 26.9326 13.925 26.5365 13.9281C26.1404 13.9311 25.7588 13.7981 25.4739 13.5577L25.0313 13.1711V21.8611C25.0313 22.561 24.713 23.2322 24.1463 23.7271C23.5797 24.222 22.8112 24.5 22.0099 24.5H17.4779C17.0772 24.5 16.693 24.361 16.4096 24.1135C16.1263 23.8661 15.9672 23.5305 15.9672 23.1805V19.2222H12.9458V23.1805C12.9458 23.5305 12.7866 23.8661 12.5033 24.1135C12.22 24.361 11.8358 24.5 11.4351 24.5H6.90308C6.10176 24.5 5.33326 24.222 4.76665 23.7271C4.20003 23.2322 3.88171 22.561 3.88171 21.8611V13.1711L3.43908 13.5577C3.15416 13.7981 2.77256 13.9311 2.37646 13.9281C1.98037 13.925 1.60147 13.7863 1.32138 13.5416C1.04128 13.297 0.882405 12.9661 0.878963 12.6201C0.875521 12.2742 1.02779 11.9409 1.30297 11.692L4.32434 9.05308L13.3884 1.13632Z" fill="white"/>
</svg>
