<svg width="32" height="32" viewBox="0 0 32 32" fill="none" xmlns="http://www.w3.org/2000/svg">
<circle cx="16" cy="16" r="16" fill="#1A3E6D"/>
<path d="M6.23989 14.1469C5.77356 13.8591 5.36002 13.5295 5 13.1582V21.9356L10.4928 16.8508C9.39395 16.1406 7.9781 15.2404 6.23989 14.1469Z" fill="white"/>
<path d="M25.771 14.1469C24.0991 15.1945 22.6781 16.0963 21.5078 16.8528L26.9984 21.9358V13.1582C26.6464 13.522 26.2373 13.8514 25.771 14.1469Z" fill="white"/>
<path d="M25.0353 24.0015C25.5298 24.0015 25.9582 23.8504 26.3224 23.552L20.0905 17.7828C19.9409 17.8819 19.796 17.9783 19.6591 18.0699C19.1927 18.388 18.8142 18.6362 18.5236 18.8141C18.233 18.9924 17.8463 19.1741 17.3636 19.3596C16.8806 19.5453 16.4307 19.6379 16.0133 19.6379H16.0011H15.9888C15.5714 19.6379 15.1214 19.5453 14.6385 19.3596C14.1555 19.1741 13.7689 18.9924 13.4785 18.8141C13.1879 18.6362 12.8096 18.3881 12.343 18.0699C12.213 17.9817 12.0688 17.8849 11.9129 17.7812L5.67969 23.552C6.04386 23.8504 6.47258 24.0015 6.96698 24.0015H25.0353Z" fill="white"/>
<path d="M25.0322 8H6.96385C6.3335 8 5.84888 8.19704 5.50938 8.59073C5.16961 8.98459 5 9.47717 5 10.0679C5 10.5451 5.22508 11.0621 5.67504 11.6191C6.125 12.1759 6.60379 12.6132 7.11117 12.9313C7.38933 13.1132 8.22814 13.6531 9.62762 14.5506C10.3831 15.0352 11.0401 15.4576 11.6047 15.8221C12.0859 16.1325 12.5009 16.4013 12.8435 16.6244C12.8829 16.65 12.9447 16.6909 13.0269 16.7453C13.1153 16.8041 13.2272 16.8787 13.3653 16.971C13.6313 17.1491 13.8522 17.293 14.0282 17.4029C14.2039 17.5129 14.4168 17.6358 14.6665 17.7722C14.9161 17.9084 15.1515 18.0109 15.3724 18.079C15.5934 18.1471 15.7979 18.1812 15.9861 18.1812H15.9983H16.0105C16.1987 18.1812 16.4033 18.1471 16.6243 18.079C16.8452 18.0109 17.0804 17.9086 17.3301 17.7722C17.5796 17.6358 17.7922 17.5127 17.9685 17.4029C18.1445 17.293 18.3654 17.1491 18.6314 16.971C18.7692 16.8787 18.8811 16.804 18.9696 16.7454C19.0517 16.6909 19.1136 16.6502 19.1531 16.6244C19.4201 16.4525 19.8361 16.1848 20.3953 15.8253C21.413 15.1708 22.9117 14.2074 24.8978 12.9313C25.4951 12.5451 25.9941 12.079 26.3952 11.5338C26.7956 10.9885 26.9963 10.4166 26.9963 9.81813C26.9963 9.31813 26.8017 8.89029 26.4133 8.53394C26.0245 8.17804 25.5641 8 25.0322 8Z" fill="white"/>
</svg>
