<svg width="32" height="32" viewBox="0 0 32 32" fill="none" xmlns="http://www.w3.org/2000/svg">
<circle cx="16" cy="16" r="16" fill="white"/>
<path d="M6 13.778C6 17.5156 9.26675 20.5563 13.2819 20.5563C15.035 20.5563 16.6877 19.9797 18.0006 18.9409L19.1502 20.0106L18.7353 20.3963C18.5068 20.6094 18.5068 20.9548 18.7353 21.1675L23.3423 25.4556C23.5708 25.6683 23.9419 25.6686 24.1708 25.4556L25.8282 23.9129C26.0567 23.6998 26.0571 23.3548 25.8282 23.1417L21.2212 18.854C20.9927 18.6409 20.6216 18.6409 20.3927 18.854L19.9787 19.2394L18.8291 18.1697C19.9478 16.9448 20.5646 15.4054 20.5646 13.778C20.5646 10.0404 17.2979 6.99974 13.2819 6.99974C9.26675 6.99974 6 10.0404 6 13.778ZM9.51557 13.778C9.51557 15.7112 11.2054 17.284 13.2823 17.284C13.6057 17.284 13.8682 17.5284 13.8682 17.8294C13.8682 18.1308 13.6057 18.3748 13.2823 18.3748C10.5593 18.3748 8.34371 16.3126 8.34371 13.778C8.34371 13.477 8.60621 13.2326 8.92964 13.2326C9.25307 13.2326 9.51557 13.477 9.51557 13.778Z" fill="#1A3E6D"/>
</svg>
