<svg width="201" height="61" viewBox="0 0 201 61" fill="none" xmlns="http://www.w3.org/2000/svg">
<g clip-path="url(#clip0_1030_528)">
<path d="M160.832 13.1799V8.02021H156.773V13.1799H152.703V0.305664H156.773V5.14106H160.832V0.305664H164.922V13.1799H160.832Z" fill="#ED1C24"/>
<path d="M171.76 13.4012C169.937 13.4012 168.646 13.3299 166.898 13.1767V0.306042C168.646 0.149257 169.898 0.117188 171.76 0.117188C176.268 0.117188 178.305 1.80976 178.305 6.19974V7.21885C178.305 11.6694 176.311 13.4012 171.76 13.4012ZM174.296 6.19974C174.296 3.53439 173.746 2.93932 171.885 2.93932H170.85V10.5398H171.885C173.75 10.5398 174.296 9.89132 174.296 7.21528V6.19618V6.19974Z" fill="#ED1C24"/>
<path d="M183.979 3.07791V5.36199H188.89V7.92756H183.979V13.1799H179.902V0.305664H189.279V3.07791H183.979Z" fill="#ED1C24"/>
<path d="M196.08 13.4979C192.036 13.4979 189.992 12.0584 189.992 7.32273V6.12902C189.992 1.42547 192.036 -0.00341797 196.08 -0.00341797C197.083 -0.00341797 199.137 0.181874 199.833 0.363602V3.09665C198.912 3.03251 197.675 2.95412 196.562 2.95412C194.928 2.95412 194.115 3.44942 194.115 6.12902V7.32273C194.115 10.0415 194.928 10.5404 196.562 10.5404C197.675 10.5404 198.909 10.4762 199.833 10.3979V13.106C199.137 13.3198 197.079 13.4944 196.08 13.4944" fill="#ED1C24"/>
<path d="M169.515 23.3788C171.12 23.3788 172.432 22.2706 172.432 20.8916C172.432 19.5126 171.12 18.4009 169.515 18.4009C167.91 18.4009 166.594 19.5126 166.594 20.8916C166.594 22.2706 167.899 23.3788 169.515 23.3788Z" fill="#1A3E6D"/>
<path d="M165.833 36.2605C165.833 35.5229 165.316 34.8886 164.596 34.8708C162.737 34.8458 157.765 34.8708 157.765 34.8708C157.765 34.8708 157.826 28.1005 157.822 24.0027C157.844 23.1618 157.865 21.7044 157.851 21.2269C157.805 19.5593 155.319 19.0212 153.921 18.9606C152.647 18.9036 152.711 20.0047 152.711 20.0047V36.6881C152.711 37.7784 153.878 38.0279 153.878 38.0279H165.851C165.851 38.0279 165.83 37.1477 165.83 36.264" fill="#1A3E6D"/>
<path d="M182.465 24.7441C181.919 19.0179 185.289 19.2922 186.527 19.5773C187.001 19.6521 187.001 19.1675 187.001 19.025C186.941 18.5653 186.691 18.1698 186.349 17.8776C185.15 16.8692 182.907 16.9975 182.907 16.9975C178.823 16.9975 177.453 20.0227 177.453 22.4992C177.453 23.7749 177.436 24.8581 177.436 24.8581H176.198C175.492 24.8581 175.203 25.5886 175.203 25.9699V26.8785H177.393V33.0145C172.988 36.7595 171.993 34.4861 171.993 33.5597V26.7859C171.993 25.1254 169.6 24.5766 168.173 24.5053C166.757 24.4519 166.964 25.5672 166.964 25.5672V33.8911C166.964 33.8911 166.547 38.1385 170.163 38.1278C174.097 38.1065 177.468 34.9458 177.468 34.9458C177.468 34.9458 177.468 37.2049 177.507 38.9225C177.507 39.1683 177.521 39.3679 177.521 39.5175C177.6 40.5972 178.695 40.4618 178.695 40.4618C182.557 40.4618 182.461 37.7181 182.461 37.7181V26.85H184.89C185.368 26.85 186.185 26.6077 186.185 25.699C186.185 25.1432 186.167 24.7441 186.167 24.7441H182.461H182.465Z" fill="#1A3E6D"/>
<path d="M200.352 34.2788C200.352 34.2574 200.341 34.2574 200.341 34.2574C200.298 34.1255 200.159 34.0364 199.824 34.2574C199.118 34.7313 196.881 35.6221 195.84 35.8217C194.784 36.0141 193.094 36.064 191.92 35.3157C190.75 34.5852 190.501 33.2062 190.472 33.0815C190.404 32.5933 190.394 32.1443 190.394 31.7987C190.394 30.6086 191.111 27.6831 194.071 27.6831C196.746 27.6296 197.06 31.7381 191.467 32.0659C191.467 32.0659 191.924 32.8285 192.231 33.0387C193.087 33.6231 193.736 33.6231 194.381 33.6872C196.147 33.8333 200.548 32.4543 200.241 28.663C199.842 23.6459 192.494 24.6151 190.183 25.5451C188 26.4288 184.947 28.3708 185.247 32.7358C185.586 37.7138 191.196 38.1699 193.736 38.1307C194.067 38.1164 194.385 38.0879 194.706 38.0594V38.0737C197.912 37.7993 199.71 35.9571 200.12 35.28C200.32 34.9415 200.38 34.7028 200.402 34.5282V34.5211C200.402 34.5211 200.409 34.3928 200.352 34.2752" fill="#1A3E6D"/>
<path d="M147.193 37.7819L136.472 27.0813H120.222V10.8541H120.229L109.508 0.149902V37.7819H147.193Z" fill="#B11116"/>
<path d="M120.229 10.8541H136.472V27.0813L147.193 37.7819V0.149902H109.508L120.229 10.8541Z" fill="#ED1C24"/>
<path d="M129.846 50.4811C130.049 50.5987 129.575 51.657 129.575 51.657C127.542 51.1688 125.737 53.9375 125.416 54.8746C125.049 55.9614 125.081 56.8237 125.081 56.8237L124.275 57.1337C123.861 56.9591 124.243 55.3984 124.243 55.3984C120.515 58.8798 120.173 55.2915 120.173 55.2915C118.468 57.4544 116.004 57.6825 116.121 55.6087C116.232 53.6667 118.147 52.3482 119.428 52.3803C120.697 52.4195 121.229 53.3887 121.229 53.3887C121.122 53.8056 120.547 56.1645 122.045 56.1645C122.655 56.1538 124.317 54.5717 124.317 54.5717C124.317 54.5717 124.382 54.2118 124.396 53.7949C124.421 53.378 124.396 52.7331 124.396 52.7331C124.396 52.7331 124.977 52.5121 125.273 52.5407C125.58 52.5656 125.459 52.8756 125.459 52.8756C125.459 52.8756 125.013 54.3009 125.013 54.3864C125.024 54.4827 125.052 54.4648 125.052 54.4648C127.05 50.278 129.65 50.3777 129.853 50.4811M119.296 55.2737C120.273 54.0871 120.244 53.8128 120.244 53.8128C120.244 53.8128 120.002 53.0502 119.16 53.0181C118.304 52.9825 117.337 53.9802 117.138 55.1169C116.949 56.2607 117.915 56.9485 119.296 55.2737Z" fill="#ED1C24"/>
<path d="M173.944 55.5625C174.037 55.591 174.222 55.8725 174.204 56.0293C174.047 56.407 172.849 56.9664 171.586 56.9664C170.766 56.9486 169.379 56.6564 169.482 55.1028C169.511 54.6645 169.639 54.3011 169.778 53.9911C170.26 52.9649 171.105 52.5479 171.64 52.3769C171.918 52.2985 172.3 52.2629 172.535 52.295C173.031 52.3377 173.726 52.5373 173.651 53.3176C173.559 54.5719 170.427 55.0815 170.427 55.0815C170.427 55.2062 170.499 56.2431 171.939 56.3322C173.22 56.4034 173.851 55.5269 173.944 55.5554M170.887 53.5065C170.545 53.9341 170.424 54.6254 170.424 54.6254C170.937 54.5755 171.533 54.4116 171.922 54.2583C172.671 53.9768 172.795 53.0432 172.189 52.9078C171.683 52.8081 171.255 53.029 170.884 53.5029" fill="#ED1C24"/>
<path d="M183.483 49.7578C183.693 50.0999 183.49 50.4064 183.155 50.6701C182.78 50.9694 182.184 50.9587 182.045 50.6594C181.896 50.3636 182.099 49.9182 182.498 49.6723C182.898 49.4122 183.315 49.4692 183.483 49.7578Z" fill="#ED1C24"/>
<path d="M178.576 52.5407C179.079 52.3982 180.138 51.9385 179.921 52.448C179.728 52.9469 179.475 54.415 179.4 55.035C179.311 55.6621 179.036 57.8607 178.883 58.6375C178.726 59.4214 178.005 60.8325 176.75 60.918C175.787 61 175.159 60.7113 175.006 60.3158C174.852 59.8989 175.216 59.1791 175.345 59.2504C175.48 59.3252 176.022 60.3657 176.875 60.3158C177.727 60.2552 177.977 58.9618 178.116 57.5756C178.266 56.1753 178.526 52.8578 178.572 52.5407" fill="#ED1C24"/>
<path d="M182.634 52.8075C182.634 52.8075 180.858 55.9824 182.398 56.0394C183.693 56.0858 184.67 54.8422 184.67 54.8422C184.67 54.8422 185.248 52.6757 185.384 52.6258C185.53 52.5652 186.261 52.8289 186.19 53.0676C186.129 53.3278 184.877 55.8256 186.147 56.0216C187.417 56.2212 188.305 54.7994 188.305 54.7994C188.305 54.7994 189.129 52.6044 189.214 52.5759C189.3 52.5581 190.256 52.7184 190.174 53.1175C190.035 53.8052 188.925 55.0738 188.886 55.2484C188.508 55.9575 188.226 57.3507 188.112 58.2059C188.012 59.0041 188.084 60.4365 187.941 60.6218C187.805 60.8143 187.153 60.8855 186.885 60.6503C186.885 60.6503 187.049 58.9293 187.352 57.789C187.648 56.6452 187.905 55.9397 187.905 55.9397C187.905 55.9397 186.614 57.1084 185.637 56.9623C184.67 56.8091 184.67 55.6974 184.67 55.6974C184.67 55.6974 183.343 56.9837 181.981 56.9231C180.629 56.8447 180.804 55.2448 180.868 54.8671C180.95 54.4787 181.232 53.1282 181.532 52.6828C181.678 52.4512 181.881 52.5082 182.077 52.5688C182.284 52.6329 182.634 52.7968 182.634 52.7968" fill="#ED1C24"/>
<path d="M195.609 53.2468C196.197 54.2623 195.545 55.7447 194.132 56.5749C192.702 57.4016 191.09 57.2519 190.498 56.2471C190.006 55.4097 190.548 53.7172 191.985 52.9118C193.562 52.0246 195.02 52.2348 195.609 53.2468ZM194.072 55.791C194.888 55.0605 194.981 53.906 194.546 53.3644C194.093 52.8299 193.034 52.8406 192.135 53.6423C191.297 54.3479 191.168 55.5237 191.596 56.0083C192.135 56.582 193.262 56.525 194.072 55.791Z" fill="#ED1C24"/>
<path d="M199.462 57.4829C199.231 58.2739 198.025 57.8606 197.922 57.4829C197.551 56.1965 199.726 56.3782 199.462 57.4829Z" fill="#ED1C24"/>
<path d="M109.617 56.6562C109.563 56.6419 109.513 56.5742 109.52 56.4923C109.552 56.2464 109.617 55.5801 110.119 55.5801C110.779 55.5801 111.881 56.4673 113.012 56.307C113.012 56.307 114.132 56.2927 114.2 55.2914C114.275 54.283 113.048 53.4777 112.502 53.0466C111.978 52.6297 110.658 51.6248 110.826 50.3064C111.004 48.7635 112.876 48.4748 113.518 48.457C114.364 48.457 116.069 48.8241 115.887 49.6864C115.84 49.975 115.505 50.3242 115.177 50.4062C115.074 50.2779 115.038 50.2173 114.963 50.1211C114.717 49.8075 114.164 49.0165 113.219 49.0557C112.035 49.1234 111.885 50.1247 111.874 50.4703C111.867 50.9157 112.088 51.4288 113.704 52.6831C115.252 53.8768 115.38 54.6643 115.263 55.2914C115.145 55.915 114.303 57.0481 112.388 57.0588C110.804 57.066 109.891 56.756 109.62 56.6562" fill="#ED1C24"/>
<path d="M137.069 52.5979C137.069 52.8295 135.335 56.0792 137.144 56.1113C138.338 56.1184 140.357 54.3296 140.357 54.3296C140.357 54.3296 140.764 52.7582 140.735 52.7475C140.71 52.7083 139.658 52.7903 139.626 52.7119C139.59 52.6371 139.712 52.1988 139.769 52.1453C139.822 52.099 140.821 52.1845 140.828 52.1204C140.849 52.0669 140.953 51.0015 140.828 50.7628C140.828 50.7628 141.409 50.3245 141.916 50.4278C142.09 50.4741 142.28 50.6238 141.855 52.0527C141.855 52.0527 143.039 52.0242 143.542 51.8175C143.656 51.9351 143.745 52.2914 143.564 52.4838C143.378 52.7012 141.684 52.6941 141.684 52.6941C141.684 52.6941 141.085 54.4045 141.003 55.4984C140.971 55.7906 141.149 56.3108 141.923 56.2503C142.922 56.1612 144.177 55.1171 144.641 54.5648C144.641 54.5648 145.108 52.3769 145.35 50.7628C145.386 50.3708 145.472 49.3553 145.383 49.1771C145.383 49.1771 145.989 48.7709 146.492 48.8813C146.659 48.9312 146.724 49.2234 146.36 50.7378C146.114 52.0277 145.34 55.2668 145.493 55.6552C145.728 55.3238 148.129 52.3342 148.892 52.1667C149.295 52.0919 149.556 52.523 149.506 52.801C149.477 53.0575 148.814 56.0685 150.429 56.0436C151.638 56.0329 152.576 54.4437 152.576 54.4437C152.576 54.4437 153.436 52.3734 155.615 52.352C156.917 52.4055 157.473 53.3675 157.473 53.3675C157.473 53.3675 156.867 56.0044 158.49 56.0721C159.546 56.0792 160.191 55.249 160.191 55.249C160.191 55.249 160.605 55.5447 160.605 55.6409C160.605 55.7371 159.428 56.8489 157.991 56.8346C156.539 56.8275 156.446 55.2454 156.446 55.2454C156.446 55.2454 155.034 56.9023 153.465 57.0057C152.334 57.0841 152.323 55.6516 152.323 55.6516C152.323 55.6516 151.442 56.8346 149.891 56.8346C148.339 56.8346 148.147 55.167 148.382 53.5279C148.407 53.421 148.047 53.6205 147.761 53.8878C147.498 54.1515 146.435 55.2276 145.811 56.7812C145.728 56.9059 144.655 56.7491 144.655 56.5638C144.644 56.375 144.723 55.5126 144.666 55.4913C144.609 55.477 142.957 56.9415 141.156 56.995C139.555 57.0342 140.182 55.2989 140.182 55.2989C140.182 55.2989 138.417 56.6992 136.847 56.8026C135.264 56.9059 135.456 55.2418 135.456 55.2418C135.456 55.2418 134.083 56.8738 132.753 56.8026C130.848 56.7206 132.136 53.2642 132.592 52.5551C132.603 52.5409 132.625 52.5159 132.657 52.5159C132.803 52.5159 133.759 52.3306 133.755 52.4981C133.748 52.6905 133.27 53.1573 133.02 53.7096C132.781 54.2691 132.079 55.6481 133.256 55.8476C134.451 56.0507 135.428 54.0268 135.428 54.0268C135.428 54.0268 135.77 52.9756 135.963 52.5409C136.277 52.4518 137.065 52.4197 137.065 52.5836M155.469 55.2739C156.489 54.1087 156.489 53.813 156.489 53.813C156.489 53.813 156.186 53.0504 155.337 53.0183C154.492 52.9827 153.507 53.9804 153.315 55.1171C153.115 56.2609 154.078 56.856 155.469 55.2739Z" fill="#ED1C24"/>
<path d="M165.452 50.6592C165.259 52.0846 164.735 55.1312 164.735 55.2666C164.71 55.4198 164.802 55.3557 164.802 55.3557C165.494 54.0943 167.745 51.9777 168.33 51.9777C168.915 51.9777 168.765 52.7723 168.765 52.7723C168.144 52.6084 166.161 54.4328 166.161 54.4328C166.161 54.4328 166.6 54.8996 167.456 55.5802C168.316 56.2607 169.496 56.642 169.482 56.7382C169.464 56.8416 168.936 57.287 168.708 57.3119C168.169 57.3618 165.694 54.9851 165.694 54.9851C165.045 55.5338 164.738 56.5814 164.681 56.7062C164.628 56.8202 164.15 56.8024 163.879 56.7881C163.658 56.781 164.357 52.9291 164.556 50.506C164.592 49.9965 164.567 49.3408 164.492 49.1769C164.492 49.1769 165.049 48.7101 165.569 48.8099C165.733 48.8562 165.569 49.8112 165.452 50.6557" fill="#ED1C24"/>
<path d="M199.4 54.358C199.468 55.1704 199.853 55.1063 199.764 55.2916C199.632 55.6016 199.346 55.8047 199.068 55.7691C198.337 55.6871 198.415 54.1086 198.547 53.0253C198.711 51.6534 199.004 50.784 199.097 49.9181C199.129 49.4228 199.118 48.8242 199.04 48.671C199.04 48.671 199.707 48.2398 200.213 48.3431C200.381 48.3895 200.213 49.291 200.088 50.0785C199.971 50.784 199.222 53.1964 199.396 54.3616" fill="#ED1C24"/>
<path d="M180.279 49.523C180.486 49.8757 180.272 50.1537 179.922 50.4174C179.555 50.7131 178.984 50.7238 178.831 50.4245C178.681 50.143 178.884 49.6762 179.276 49.4374C179.679 49.1809 180.107 49.2343 180.279 49.523Z" fill="#ED1C24"/>
<path d="M98.8086 0.235352V60.6974" stroke="#808080" stroke-opacity="0.4" stroke-width="0.48" stroke-miterlimit="10"/>
<path d="M44.313 24.4232C45.5471 23.397 46.5315 22.5382 47.2627 21.8505C47.9938 21.1628 48.6073 20.4466 49.0959 19.7018C49.5846 18.9571 49.8271 18.2266 49.8271 17.5068C49.8271 16.8512 49.6737 16.3381 49.3634 15.9639C49.0531 15.5898 48.5788 15.4045 47.9368 15.4045C47.2948 15.4045 46.799 15.6183 46.453 16.0494C46.1071 16.4806 45.9252 17.0685 45.9145 17.8133H43.293C43.3429 16.2704 43.803 15.1016 44.6733 14.307C45.54 13.5124 46.6421 13.1133 47.9796 13.1133C49.4455 13.1133 50.569 13.5017 51.3536 14.2785C52.1383 15.0553 52.5306 16.0815 52.5306 17.35C52.5306 18.3513 52.2596 19.3099 51.721 20.2221C51.1824 21.1343 50.5654 21.9289 49.8699 22.6024C49.1744 23.2758 48.2685 24.0882 47.1521 25.0396H52.8409V27.2738H43.3144V25.2713L44.3166 24.4232H44.313Z" fill="#1A3E6D"/>
<path d="M34.0198 32.3829C34.5798 32.0622 35.2182 31.9019 35.9387 31.9019V34.7347H35.2253C34.3765 34.7347 33.738 34.9342 33.3065 35.3333C32.8749 35.7324 32.6609 36.4237 32.6609 37.4143V42.7307H29.9609V32.0551H32.6609V33.712C33.0069 33.1454 33.4598 32.7036 34.0198 32.3829Z" fill="#1A3E6D"/>
<path d="M39.7214 42.2213C38.8975 41.7652 38.2519 41.1202 37.7847 40.2864C37.3139 39.4526 37.082 38.4869 37.082 37.3966C37.082 36.3062 37.3246 35.3405 37.8061 34.5067C38.2876 33.6729 38.9474 33.028 39.782 32.5719C40.6166 32.1157 41.5511 31.8877 42.5783 31.8877C43.6055 31.8877 44.5399 32.1157 45.3745 32.5719C46.2091 33.028 46.869 33.6729 47.3505 34.5067C47.832 35.3405 48.0745 36.3062 48.0745 37.3966C48.0745 38.4869 47.8284 39.4526 47.3326 40.2864C46.8369 41.1202 46.1699 41.7687 45.3282 42.2213C44.4864 42.6774 43.5448 42.9054 42.5034 42.9054C41.4619 42.9054 40.5488 42.6774 39.7249 42.2213H39.7214ZM43.8765 40.1973C44.3081 39.9586 44.6505 39.6022 44.9073 39.1283C45.1641 38.6544 45.2925 38.0736 45.2925 37.393C45.2925 36.3775 45.025 35.5971 44.4936 35.0519C43.9586 34.5067 43.3059 34.2323 42.5355 34.2323C41.7651 34.2323 41.1195 34.5067 40.5988 35.0519C40.078 35.5971 39.8177 36.3775 39.8177 37.393C39.8177 38.4085 40.0709 39.1889 40.5809 39.7341C41.0874 40.2793 41.7294 40.5536 42.4998 40.5536C42.9884 40.5536 43.4485 40.4361 43.8801 40.1973H43.8765Z" fill="#1A3E6D"/>
<path d="M51.7952 42.4318C51.0997 42.1182 50.5505 41.6906 50.1474 41.149C49.7408 40.6109 49.5197 40.0123 49.4805 39.3567H52.1983C52.2482 39.7664 52.4515 40.1085 52.8046 40.3793C53.1577 40.6501 53.6 40.7855 54.1243 40.7855C54.6486 40.7855 55.0409 40.6822 55.3298 40.4755C55.6187 40.2689 55.7649 40.0052 55.7649 39.6845C55.7649 39.3388 55.5866 39.0787 55.2335 38.9041C54.8804 38.7295 54.3169 38.5407 53.5465 38.334C52.7475 38.1416 52.0984 37.942 51.5884 37.7354C51.0819 37.5287 50.6432 37.2151 50.2758 36.7911C49.9085 36.3671 49.7266 35.7969 49.7266 35.0771C49.7266 34.4856 49.8978 33.9476 50.2366 33.4594C50.5754 32.9712 51.0676 32.5864 51.7025 32.3049C52.3374 32.0234 53.0864 31.8809 53.9495 31.8809C55.2228 31.8809 56.2393 32.198 56.9954 32.8358C57.7551 33.4701 58.1724 34.3288 58.2473 35.4085H55.6615C55.6223 34.9845 55.4475 34.646 55.1301 34.3965C54.8162 34.1471 54.3953 34.0224 53.8675 34.0224C53.3788 34.0224 53.0043 34.1115 52.7404 34.2932C52.4765 34.4749 52.3445 34.7244 52.3445 35.0451C52.3445 35.405 52.5228 35.6793 52.8831 35.8646C53.2433 36.0499 53.8033 36.2388 54.5594 36.4348C55.3298 36.6272 55.9682 36.8267 56.4676 37.0334C56.9705 37.2401 57.402 37.5572 57.7694 37.9884C58.1368 38.4195 58.3258 38.9861 58.3401 39.6952C58.3401 40.3116 58.1689 40.8639 57.83 41.3521C57.4876 41.8403 56.999 42.2216 56.3641 42.4995C55.7293 42.7774 54.9838 42.9128 54.135 42.9128C53.2861 42.9128 52.4765 42.7561 51.781 42.4425L51.7952 42.4318Z" fill="#1A3E6D"/>
<path d="M64.7041 32.376C65.314 32.0482 66.013 31.8843 66.7977 31.8843C67.7108 31.8843 68.5347 32.1088 69.2765 32.5577C70.0148 33.0067 70.5998 33.6481 71.0313 34.4748C71.4629 35.305 71.6769 36.2636 71.6769 37.3539C71.6769 38.4443 71.4629 39.4135 71.0313 40.2545C70.5998 41.0954 70.0148 41.7475 69.2765 42.2107C68.5382 42.6739 67.7108 42.9056 66.7977 42.9056C66.013 42.9056 65.3211 42.7452 64.7255 42.4245C64.1263 42.1038 63.6412 41.6976 63.2703 41.2094V47.8194H60.5703V32.0589H63.2703V33.6018C63.6162 33.1136 64.0977 32.7074 64.7076 32.3796L64.7041 32.376ZM68.524 35.6899C68.26 35.2195 67.9141 34.8632 67.4825 34.6209C67.0509 34.3786 66.5873 34.2539 66.0844 34.2539C65.5815 34.2539 65.1356 34.3786 64.7041 34.628C64.2725 34.8774 63.9265 35.2409 63.6626 35.7148C63.3987 36.1887 63.2667 36.7482 63.2667 37.3896C63.2667 38.031 63.3987 38.5904 63.6626 39.0643C63.9265 39.5382 64.2725 39.9017 64.7041 40.1511C65.1356 40.4006 65.5957 40.5253 66.0844 40.5253C66.573 40.5253 67.0509 40.397 67.4825 40.1404C67.9141 39.8839 68.26 39.5169 68.524 39.0429C68.7879 38.569 68.9199 38.0025 68.9199 37.3468C68.9199 36.6912 68.7879 36.1495 68.524 35.6792V35.6899Z" fill="#1A3E6D"/>
<path d="M83.4994 38.202H75.6884C75.7526 38.9717 76.0237 39.5774 76.498 40.0122C76.9724 40.4505 77.5573 40.6678 78.2528 40.6678C79.2551 40.6678 79.9684 40.2367 80.3928 39.3779H83.3032C82.9929 40.4041 82.4044 41.2486 81.5306 41.9114C80.6568 42.5742 79.5832 42.902 78.3099 42.902C77.2827 42.902 76.3589 42.674 75.5422 42.2178C74.7254 41.7617 74.0905 41.1168 73.634 40.283C73.1775 39.4492 72.9492 38.4835 72.9492 37.3931C72.9492 36.3028 73.1739 35.3193 73.6233 34.4855C74.0727 33.6517 74.704 33.0067 75.5136 32.5577C76.3233 32.1088 77.2542 31.8843 78.3099 31.8843C79.3656 31.8843 80.2359 32.1016 81.0384 32.5399C81.8409 32.9782 82.4651 33.5982 82.9109 34.4C83.3532 35.2017 83.5779 36.1246 83.5779 37.1651C83.5779 37.5499 83.5529 37.8956 83.4994 38.2056V38.202ZM80.778 36.3919C80.7638 35.697 80.5141 35.1411 80.0255 34.7242C79.5368 34.3073 78.9376 34.0971 78.2314 34.0971C77.5609 34.0971 77.0009 34.3002 76.5444 34.7028C76.0879 35.1091 75.8097 35.6685 75.7062 36.3883H80.778V36.3919Z" fill="#1A3E6D"/>
<path d="M89.6057 32.9321C90.1657 32.6114 90.8041 32.451 91.5246 32.451V35.2839H90.8113C89.9624 35.2839 89.324 35.4834 88.8924 35.8825C88.4608 36.2816 88.2468 36.9729 88.2468 37.9635V42.7347H85.5469V32.0591H88.2468V34.2648C88.5928 33.6982 89.0458 33.2564 89.6057 32.9357V32.9321Z" fill="#1A3E6D"/>
<path d="M27.1366 35.2132C26.7835 35.8688 26.2271 36.3962 25.471 36.7953C24.7148 37.1943 23.7625 37.3975 22.6105 37.3975H20.2637V42.7709H17.4531V28.7778H22.6105C23.6948 28.7778 24.6185 28.9667 25.3782 29.3373C26.1415 29.7114 26.7122 30.2245 27.0938 30.8802C27.4754 31.5358 27.6645 32.277 27.6645 33.1037C27.6645 33.852 27.4861 34.5539 27.133 35.2096L27.1366 35.2132ZM24.2155 34.6003C24.59 34.2475 24.779 33.7486 24.779 33.1072C24.779 31.7425 24.0158 31.0619 22.4928 31.0619H20.2672V35.1312H22.4928C23.2668 35.1312 23.8446 34.953 24.2191 34.6003H24.2155Z" fill="#1A3E6D"/>
<path d="M10.415 20.7792C10.0904 21.3671 9.58749 21.841 8.91339 22.2009C8.23929 22.5608 7.40112 22.7425 6.39889 22.7425H4.5478V27.1396H1.5625V14.8926H6.39889C7.37616 14.8926 8.20362 15.0601 8.87772 15.3986C9.55182 15.7371 10.0583 16.2003 10.3971 16.7954C10.736 17.3869 10.9036 18.0675 10.9036 18.8372C10.9036 19.5462 10.7395 20.1948 10.415 20.7827V20.7792ZM7.44392 19.9667C7.72212 19.6995 7.86479 19.3218 7.86479 18.8336C7.86479 18.3454 7.72569 17.9677 7.44392 17.7005C7.16216 17.4332 6.73773 17.2978 6.17063 17.2978H4.5478V20.3694H6.17063C6.74129 20.3694 7.16573 20.2375 7.44392 19.9667Z" fill="#ED1C24"/>
<path d="M12.4265 19.6171C12.8045 18.8616 13.3181 18.2808 13.9708 17.871C14.6235 17.4648 15.3511 17.2617 16.1536 17.2617C16.842 17.2617 17.4412 17.4007 17.9619 17.6822C18.4791 17.9601 18.8786 18.3271 19.1568 18.7797V17.4007H22.1421V27.1356H19.1568V25.7566C18.8643 26.2092 18.4613 26.5762 17.9441 26.8541C17.4269 27.1321 16.8242 27.271 16.1358 27.271C15.344 27.271 14.6235 27.0644 13.9708 26.651C13.3181 26.2377 12.8045 25.6497 12.4265 24.8907C12.0484 24.1282 11.8594 23.2481 11.8594 22.2468C11.8594 21.2455 12.0484 20.3689 12.4265 19.6135V19.6171ZM18.5397 20.5079C18.126 20.0767 17.6231 19.8629 17.031 19.8629C16.439 19.8629 15.9325 20.0767 15.5188 20.5008C15.105 20.9248 14.8982 21.5092 14.8982 22.2539C14.8982 22.9986 15.105 23.5901 15.5188 24.0249C15.9325 24.4596 16.4354 24.6805 17.031 24.6805C17.6267 24.6805 18.1296 24.4667 18.5397 24.0356C18.9535 23.6044 19.1603 23.0164 19.1603 22.2717C19.1603 21.527 18.9535 20.939 18.5397 20.5079Z" fill="#ED1C24"/>
<path d="M29.7466 24.6055V27.1354H28.2272C27.1429 27.1354 26.3012 26.8718 25.6949 26.3408C25.0885 25.8099 24.7854 24.9476 24.7854 23.7503V19.877H23.5977V17.4005H24.7854V15.0273H27.7706V17.4005H29.7252V19.877H27.7706V23.7859C27.7706 24.0781 27.842 24.2848 27.9811 24.4131C28.1202 24.5414 28.352 24.6055 28.6801 24.6055H29.7466Z" fill="#ED1C24"/>
<path d="M40.08 18.4053C40.7541 19.1429 41.093 20.1585 41.093 21.4484V27.1354H38.1255V21.851C38.1255 21.199 37.9579 20.693 37.619 20.3331C37.2802 19.9732 36.8272 19.7915 36.2566 19.7915C35.6859 19.7915 35.2329 19.9732 34.8941 20.3331C34.5553 20.693 34.3876 21.199 34.3876 21.851V27.1354H31.4023V14.2256H34.3876V18.7082C34.6908 18.2771 35.1045 17.935 35.6288 17.6784C36.1531 17.4219 36.7416 17.2936 37.3943 17.2936C38.5107 17.2936 39.4095 17.6642 40.0836 18.4018L40.08 18.4053Z" fill="#ED1C24"/>
<path d="M1.17578 36.435L6.90384 36.4492C7.02867 36.4492 7.13211 36.3495 7.13211 36.2247L7.14994 29.4758C7.14994 29.2727 6.90741 29.173 6.76474 29.3155L5.46291 30.6125C5.42011 30.6553 5.39514 30.7123 5.39514 30.7729V34.3433C5.39514 34.468 5.29527 34.5678 5.17044 34.5714L3.04828 34.5785" fill="#1A3E6D"/>
<path d="M14.4781 37.6969L8.75001 37.6826C8.62517 37.6826 8.52174 37.7824 8.52174 37.9071L8.50391 44.656C8.50391 44.8591 8.74644 44.9589 8.88911 44.8163L10.1909 43.5193C10.2337 43.4765 10.2587 43.4195 10.2587 43.359V39.7885C10.2587 39.6638 10.3586 39.564 10.4834 39.5605L12.6056 39.5533" fill="#ED1C24"/>
<path d="M8.45958 30.4238L8.44531 36.1465C8.44531 36.2712 8.54518 36.3745 8.67001 36.3745L15.4253 36.3924C15.6286 36.3924 15.7284 36.1501 15.5858 36.0075L14.2875 34.7069C14.2447 34.6642 14.1876 34.6392 14.127 34.6392H10.5532C10.4284 34.6392 10.3285 34.5394 10.3249 34.4147L10.3178 32.2946" fill="#1A3E6D"/>
<path d="M7.19321 43.7107L7.20748 37.9881C7.20748 37.8633 7.10761 37.76 6.98278 37.76L0.227522 37.7422C0.0242226 37.7422 -0.075644 37.9845 0.0670225 38.127L1.36529 39.4276C1.40809 39.4704 1.46515 39.4953 1.52579 39.4953H5.09958C5.22442 39.4953 5.32428 39.5951 5.32785 39.7198L5.33498 41.84" fill="#1A3E6D"/>
</g>
<defs>
<clipPath id="clip0_1030_528">
<rect width="200.4" height="60.9324" fill="white"/>
</clipPath>
</defs>
</svg>
